<svg width="92" height="74" viewBox="0 0 92 74" fill="none" xmlns="http://www.w3.org/2000/svg">
<path d="M73.5 32.4167V41.5833H91.8334V32.4167H73.5ZM64.3334 62.7125C68.7334 65.9667 74.4625 70.275 79 73.6667C80.8334 71.2375 82.6667 68.7625 84.5 66.3333C79.9625 62.9417 74.2334 58.6333 69.8334 55.3333C68 57.8083 66.1667 60.2833 64.3334 62.7125ZM84.5 7.66668C82.6667 5.23751 80.8334 2.76251 79 0.333344C74.4625 3.72501 68.7334 8.03334 64.3334 11.3333C66.1667 13.7625 68 16.2375 69.8334 18.6667C74.2334 15.3667 79.9625 11.1042 84.5 7.66668ZM9.33335 23.25C4.29169 23.25 0.166687 27.375 0.166687 32.4167V41.5833C0.166687 46.625 4.29169 50.75 9.33335 50.75H13.9167V69.0833H23.0834V50.75H27.6667L50.5834 64.5V9.50001L27.6667 23.25H9.33335ZM62.0417 37C62.0417 30.9042 59.3834 25.4042 55.1667 21.6458V52.3083C59.3834 48.5958 62.0417 43.0958 62.0417 37Z" fill="#E38916"/>
</svg>
